<svg xmlns="http://www.w3.org/2000/svg" width="640" height="400" viewBox="0 0 640 400">
  <rect width="640" height="400" rx="16" fill="#111827"/>
  <text x="320" y="56" font-family="system-ui,sans-serif" font-size="22" font-weight="600" fill="#f9fafb" text-anchor="middle">@sharepoint, in your chat</text>
  <!-- user bubble -->
  <rect x="160" y="92" width="400" height="44" rx="12" fill="#1d4ed8"/>
  <text x="180" y="120" font-family="ui-monospace,monospace" font-size="15" fill="#fff">@sharepoint /site Marketing</text>
  <!-- response card -->
  <rect x="80" y="156" width="480" height="190" rx="12" fill="#1f2937" stroke="#374151"/>
  <path d="M112 184 Q113.8 192.2 122 194 Q113.8 195.8 112 204 Q110.2 195.8 102 194 Q110.2 192.2 112 184 Z" fill="#e5e7eb"/>
  <text x="134" y="200" font-family="system-ui,sans-serif" font-size="16" font-weight="600" fill="#f3f4f6">Marketing  ·  managed</text>
  <rect x="106" y="220" width="430" height="1.5" fill="#374151"/>
  <text x="106" y="248" font-family="system-ui,sans-serif" font-size="14" fill="#93c5fd">▸ Lists &amp; libraries (6)</text>
  <rect x="124" y="260" width="180" height="9" rx="4.5" fill="#374151"/>
  <rect x="124" y="278" width="220" height="9" rx="4.5" fill="#374151"/>
  <text x="106" y="312" font-family="system-ui,sans-serif" font-size="14" fill="#93c5fd">▸ Pages (12)</text>
  <rect x="124" y="324" width="200" height="9" rx="4.5" fill="#374151"/>
  <!-- tool chips -->
  <rect x="80" y="362" width="124" height="26" rx="13" fill="#111827" stroke="#374151"/>
  <text x="142" y="379" font-family="ui-monospace,monospace" font-size="12" fill="#22d3ee" text-anchor="middle">#spSiteOverview</text>
  <rect x="212" y="362" width="84" height="26" rx="13" fill="#111827" stroke="#374151"/>
  <text x="254" y="379" font-family="ui-monospace,monospace" font-size="12" fill="#22d3ee" text-anchor="middle">#spPages</text>
  <rect x="304" y="362" width="84" height="26" rx="13" fill="#111827" stroke="#374151"/>
  <text x="346" y="379" font-family="ui-monospace,monospace" font-size="12" fill="#22d3ee" text-anchor="middle">#spUsage</text>
  <rect x="396" y="362" width="120" height="26" rx="13" fill="#111827" stroke="#374151"/>
  <text x="456" y="379" font-family="ui-monospace,monospace" font-size="12" fill="#22d3ee" text-anchor="middle">#spConnections</text>
</svg>
