<svg xmlns="http://www.w3.org/2000/svg" width="640" height="400" viewBox="0 0 640 400">
  <rect width="640" height="400" rx="16" fill="#111827"/>
  <text x="320" y="56" font-family="system-ui,sans-serif" font-size="22" font-weight="600" fill="#f9fafb" text-anchor="middle">Organize work into Projects</text>
  <!-- project card -->
  <rect x="80" y="92" width="480" height="266" rx="12" fill="#1f2937" stroke="#374151"/>
  <!-- active project header -->
  <path d="M112 120 Q113.8 128.2 122 130 Q113.8 131.8 112 140 Q110.2 131.8 102 130 Q110.2 128.2 112 120 Z" fill="#e5e7eb"/>
  <text x="134" y="136" font-family="system-ui,sans-serif" font-size="16" font-weight="600" fill="#f3f4f6">Marketing Site Refresh</text>
  <rect x="430" y="118" width="106" height="24" rx="12" fill="#064e3b" stroke="#10b981"/>
  <text x="483" y="135" font-family="system-ui,sans-serif" font-size="12" fill="#6ee7b7" text-anchor="middle">active scope</text>
  <rect x="106" y="156" width="430" height="1.5" fill="#374151"/>
  <!-- goals (user) -->
  <text x="106" y="184" font-family="system-ui,sans-serif" font-size="14" fill="#93c5fd">▸ Goals &amp; instructions (you)</text>
  <rect x="124" y="196" width="300" height="9" rx="4.5" fill="#374151"/>
  <rect x="124" y="214" width="250" height="9" rx="4.5" fill="#374151"/>
  <!-- AI-managed memory -->
  <text x="106" y="250" font-family="system-ui,sans-serif" font-size="14" fill="#c4b5fd">▸ AI-managed memory (you approve)</text>
  <rect x="124" y="262" width="270" height="9" rx="4.5" fill="#312e54"/>
  <rect x="124" y="280" width="210" height="9" rx="4.5" fill="#312e54"/>
  <!-- scoped reference sources -->
  <text x="106" y="316" font-family="system-ui,sans-serif" font-size="14" fill="#93c5fd">▸ Reference sources (3)</text>
  <rect x="124" y="328" width="120" height="20" rx="10" fill="#111827" stroke="#374151"/>
  <text x="184" y="342" font-family="ui-monospace,monospace" font-size="11" fill="#22d3ee" text-anchor="middle">Confluence</text>
  <rect x="252" y="328" width="78" height="20" rx="10" fill="#111827" stroke="#374151"/>
  <text x="291" y="342" font-family="ui-monospace,monospace" font-size="11" fill="#22d3ee" text-anchor="middle">Jira</text>
  <rect x="338" y="328" width="92" height="20" rx="10" fill="#111827" stroke="#374151"/>
  <text x="384" y="342" font-family="ui-monospace,monospace" font-size="11" fill="#22d3ee" text-anchor="middle">SharePoint</text>
</svg>
